<?xml version="1.0" encoding="utf-8"?>
<!-- Generator: Adobe Illustrator 22.1.0, SVG Export Plug-In . SVG Version: 6.00 Build 0)  -->
<svg version="1.1" id="Layer_1" xmlns="http://www.w3.org/2000/svg" xmlns:xlink="http://www.w3.org/1999/xlink" x="0px" y="0px"
	 viewBox="0 0 512 512" style="enable-background:new 0 0 512 512;" xml:space="preserve">
<style type="text/css">
	.st0{display:none;fill:#444B54;}
	.st1{fill:#FFFFFF;}
	.st2{fill:none;stroke:#FFFFFF;stroke-width:12;stroke-linecap:round;stroke-linejoin:round;stroke-miterlimit:10;}
</style>
<rect x="-0.5" y="-0.5" class="st0" width="512" height="512"/>
<g id="icon">
	<g>
		<path class="st1" d="M195.6,427.2c16.1-0.8,28.8-3.6,38.3-8.4c9.4-4.8,17.1-12.2,22.9-22c-22.3,0-40.6-5.8-55-17.5
			c-14.4-11.6-21.5-29.4-21.5-53.3c0-10.2,2-19.8,5.9-28.6c3.9-8.8,9.2-16.6,16-23.2c6.7-6.6,14.9-11.8,24.4-15.5
			c9.5-3.7,19.6-5.6,30.3-5.6c11.4,0,21.9,2.3,31.3,6.8c9.4,4.5,17.6,10.5,24.4,17.9c6.8,7.4,12.2,16.1,16.1,25.9
			c3.9,9.8,5.9,20.1,5.9,30.7c0,14.9-2.1,30.1-6.2,45.8c-4.1,15.7-11.3,30.3-21.5,43.8c-10.2,13.6-24.5,25.3-42.6,35.1
			c-18.2,9.8-41,16.5-68.5,19.9V427.2z"/>
	</g>
	<g>
		<path class="st1" d="M256,43c48,0,87,39,87,87s-39,87-87,87s-87-39-87-87S208,43,256,43 M256,33c-53.6,0-97,43.4-97,97
			s43.4,97,97,97s97-43.4,97-97S309.6,33,256,33L256,33z"/>
	</g>
	<line class="st2" x1="255.1" y1="174.2" x2="255.1" y2="174.2"/>
	<line class="st2" x1="256.5" y1="85.6" x2="256.5" y2="85.6"/>
	<line class="st2" x1="288.5" y1="159.6" x2="288.5" y2="159.6"/>
	<line class="st2" x1="288.5" y1="100.1" x2="288.5" y2="100.1"/>
	<line class="st2" x1="224.6" y1="98.7" x2="224.6" y2="98.7"/>
	<line class="st2" x1="224.6" y1="161.1" x2="224.6" y2="161.1"/>
	<line class="st2" x1="301.5" y1="130.6" x2="301.5" y2="130.6"/>
	<line class="st2" x1="211.5" y1="130.6" x2="211.5" y2="130.6"/>
</g>
<g>
</g>
<g>
</g>
<g>
</g>
<g>
</g>
<g>
</g>
<g>
</g>
<g>
</g>
<g>
</g>
<g>
</g>
<g>
</g>
<g>
</g>
<g>
</g>
<g>
</g>
<g>
</g>
<g>
</g>
</svg>
