<?xml version="1.0" encoding="utf-8"?>
<!-- Generator: Adobe Illustrator 22.1.0, SVG Export Plug-In . SVG Version: 6.00 Build 0)  -->
<svg version="1.1" id="Layer_1" xmlns="http://www.w3.org/2000/svg" x="0px"
     y="0px"
     viewBox="0 0 512 512" style="enable-background:new 0 0 512 512;" xml:space="preserve">
<style type="text/css">
	.st0{display:none;fill:#444B54;}
	.st1{fill:#FFFFFF;}
	.st2{fill:none;stroke:#FFFFFF;stroke-width:12;stroke-linecap:round;stroke-linejoin:round;stroke-miterlimit:10;}
</style>
  <rect x="-0.5" y="-0.5" class="st0" width="512" height="512"/>
  <g id="icon">
	<g>
		<path class="st1" d="M213.9,382.9c11.1-0.6,19.9-2.5,26.4-5.8c6.5-3.3,11.8-8.4,15.8-15.1c-15.4,0-28-4-37.9-12
			c-9.9-8-14.8-20.3-14.8-36.7c0-7.1,1.3-13.6,4-19.7c2.7-6.1,6.4-11.4,11-16c4.6-4.6,10.2-8.1,16.8-10.7c6.6-2.6,13.5-3.8,20.9-3.8
			c7.9,0,15.1,1.6,21.6,4.7c6.5,3.1,12.1,7.2,16.8,12.3c4.7,5.1,8.4,11.1,11.1,17.8c2.7,6.8,4,13.8,4,21.2c0,10.2-1.4,20.8-4.3,31.5
			c-2.8,10.8-7.8,20.9-14.8,30.2s-16.8,17.4-29.4,24.2c-12.5,6.8-28.3,11.3-47.2,13.7V382.9z"/>
	</g>
    <g>
		<path class="st1" d="M255.5,121.4c31.3,0,56.8,25.5,56.8,56.8S286.8,235,255.5,235s-56.8-25.5-56.8-56.8S224.1,121.4,255.5,121.4
			 M255.5,111.4c-36.9,0-66.8,29.9-66.8,66.8s29.9,66.8,66.8,66.8s66.8-29.9,66.8-66.8S292.4,111.4,255.5,111.4L255.5,111.4z"/>
	</g>
    <line class="st2" x1="254.8" y1="208.6" x2="254.8" y2="208.6"/>
    <line class="st2" x1="255.8" y1="147.6" x2="255.8" y2="147.6"/>
    <line class="st2" x1="277.8" y1="198.6" x2="277.8" y2="198.6"/>
    <line class="st2" x1="277.8" y1="157.6" x2="277.8" y2="157.6"/>
    <line class="st2" x1="233.8" y1="156.6" x2="233.8" y2="156.6"/>
    <line class="st2" x1="233.8" y1="199.6" x2="233.8" y2="199.6"/>
    <line class="st2" x1="286.8" y1="178.6" x2="286.8" y2="178.6"/>
    <line class="st2" x1="224.8" y1="178.6" x2="224.8" y2="178.6"/>
</g>
  <g>
</g>
  <g>
</g>
  <g>
</g>
  <g>
</g>
  <g>
</g>
  <g>
</g>
  <g>
</g>
  <g>
</g>
  <g>
</g>
  <g>
</g>
  <g>
</g>
  <g>
</g>
  <g>
</g>
  <g>
</g>
  <g>
</g>
</svg>
