<?xml version="1.0" encoding="utf-8"?>
<!-- Generator: Adobe Illustrator 22.1.0, SVG Export Plug-In . SVG Version: 6.00 Build 0)  -->
<svg version="1.1" xmlns="http://www.w3.org/2000/svg" x="0px" y="0px"
     viewBox="0 0 495.4 448" style="enable-background:new 0 0 495.4 448;" xml:space="preserve">
<style type="text/css">
	.st0{display:none;}
	.st1{display:inline;fill:none;stroke:#282828;stroke-width:13.783;stroke-linecap:round;stroke-miterlimit:10;}
	.st2{display:inline;}
	.st3{fill:#9CCC65;}
	.st4{display:inline;fill:#F8FFD7;}
	.st5{display:none;fill:#5F4339;}
	.st6{fill:#282828;}
	.st7{fill:#8D6E63;}
	.st8{fill:#5F4339;}
	.st9{display:inline;fill:none;stroke:#282828;stroke-width:13.6835;stroke-linecap:round;stroke-miterlimit:10;}
	.st10{fill:#BEF67A;}
	.st11{fill:none;stroke:#282828;stroke-width:13.6494;stroke-linecap:round;stroke-miterlimit:10;}
	.st12{opacity:0.38;}
	.st13{fill:#FFFFFF;}
	.st14{opacity:0.76;fill:#FFFFFF;}
	.st15{opacity:0.3;}
</style>
  <g id="Layer_1" class="st0">
	<line class="st1" x1="282.1" y1="329.9" x2="336.2" y2="352.6"/>
    <line class="st1" x1="154.1" y1="384.1" x2="132.8" y2="438.8"/>
    <line class="st1" x1="67" y1="372.1" x2="12.9" y2="349.4"/>
    <line class="st1" x1="332.7" y1="259.4" x2="354" y2="204.8"/>
    <g class="st2">
		
			<ellipse transform="matrix(0.9207 -0.3902 0.3902 0.9207 -70.9473 79.0058)" class="st3" cx="159" cy="214.1"
               rx="159.6" ry="103.4"/>
	</g>

    <ellipse transform="matrix(0.9207 -0.3902 0.3902 0.9207 -71.0178 78.0996)" class="st4" cx="156.7" cy="213.8"
             rx="57.4" ry="38.5"/>
    <g class="st2">
		<path class="st5" d="M103,236.7c8.7,20.5,39.9,27,69.5,14.4s46.6-39.5,38-60c-8.7-20.5-39.9-27-69.5-14.4S94.3,216.2,103,236.7z
			 M166.9,238.1c-19.2,8.2-39.5,3.9-45.1-9.4c-5.6-13.3,5.4-30.8,24.6-38.9s39.5-3.9,45.1,9.4C197.2,212.5,186.2,230,166.9,238.1z"
    />
      <path class="st6" d="M220.2,187c1.5,3.6,7,4.7,12.2,2.5l15.9-6.7c5.2-2.2,8.2-6.9,6.7-10.5s-7-4.7-12.2-2.5l-15.9,6.7
			C221.7,178.7,218.7,183.4,220.2,187z"/>
      <path class="st6" d="M60,256.1c1.5,3.6,7,4.7,12.2,2.5l15.9-6.7c5.2-2.2,8.2-6.9,6.7-10.5s-7-4.7-12.2-2.5l-15.9,6.7
			C61.4,247.8,58.4,252.5,60,256.1z"/>
      <path class="st6" d="M127.9,145.9c-5.2,2.2-8.2,6.9-6.7,10.5l4.7,11c1.5,3.6,7,4.7,12.2,2.5c5.2-2.2,8.2-6.9,6.7-10.5l-4.7-11
			C138.5,144.9,133.1,143.7,127.9,145.9z"/>
      <path class="st6" d="M175.3,258c-5.2,2.2-8.2,6.9-6.7,10.5l6.8,16.1c1.5,3.6,7,4.7,12.2,2.5c5.2-2.2,8.2-6.9,6.7-10.5l-6.8-16.1
			C186,256.9,180.5,255.8,175.3,258z"/>
      <path class="st6" d="M94.7,192.7l-14.5-3c-4.8-1-10.7,1.5-13.3,5.6c-1.3,2.1-1.5,4.1-0.8,5.8c0.7,1.7,2.3,2.9,4.7,3.4l14.5,3
			c4.8,1,10.7-1.5,13.3-5.6C101.2,197.8,99.4,193.7,94.7,192.7z"/>
      <path class="st6" d="M214,231.8c0.7,1.7,2.3,2.9,4.7,3.4l14.5,3c4.8,1,10.7-1.5,13.3-5.6c2.6-4.1,0.8-8.2-3.9-9.2l-14.5-3
			c-4.8-1-10.7,1.5-13.3,5.6C213.5,228.1,213.3,230.2,214,231.8z"/>
      <path class="st6" d="M184.5,154.6c-1.3,2.1-1.5,4.1-0.8,5.8c0.7,1.7,2.3,2.9,4.7,3.4c4.8,1,10.7-1.5,13.3-5.6l7.9-12.5
			c2.6-4.1,0.8-8.2-3.9-9.2c-4.8-1-10.7,1.5-13.3,5.6L184.5,154.6z"/>
      <path class="st6" d="M128.9,273.3c2.6-4.1,0.8-8.2-3.9-9.2c-4.8-1-10.7,1.5-13.3,5.6l-7.9,12.5c-1.3,2.1-1.5,4.1-0.8,5.8
			c0.7,1.7,2.3,2.9,4.7,3.4c4.8,1,10.7-1.5,13.3-5.6L128.9,273.3z"/>
      <g>
			<path class="st7" d="M156.6,412.1c-21.7,0-42-4.5-60.4-13.5c-27.8-13.6-51.3-38-63-65.5L12,282.9
				c-23.5-55.5,23.4-128.7,104.7-163.2c27.3-11.6,56.3-17.7,83.7-17.7c24.9,0,47.9,5.1,66.5,14.7c18.8,9.7,32.6,24,39.9,41.3
				l21.3,50.2c11.6,27.5,12.9,61.4,3.3,90.8c-13.5,41.5-47.4,74.7-97.9,96.1C206.9,406.3,181,412.1,156.6,412.1
				C156.6,412.1,156.6,412.1,156.6,412.1z M202.1,106.5c-28,0-56.9,6-83.6,17.3c-36.1,15.3-67.9,40.7-87.2,69.7
				C11.1,223.9,6,254.9,17,280.8c13.3,31.4,48,49.5,95.2,49.5c27.8,0,57.6-6.4,86-18.4c36.8-15.6,69.6-40.3,90-67.7
				c22.1-29.7,28.3-60.1,17.5-85.7C291.8,125.9,253.2,106.5,202.1,106.5z"/>
        <path class="st6" d="M315.4,190.6l8.2,19.4c11.2,26.4,12.4,59.1,3.1,87.4c-13.1,40.1-46,72.3-95.2,93.2
				c-26,11-51.2,16.6-74.9,16.6c-21,0-40.5-4.4-58.2-13c-26.8-13.1-49.4-36.6-60.6-63l-11.6-27.3c18.4,20.1,48.4,31.2,86,31.2
				c28.5,0,58.9-6.5,87.9-18.8c37.5-15.9,71.1-41.2,92-69.2C306.1,228.1,314,208.9,315.4,190.6 M200.4,97.2
				c-27.2,0-56.6,5.8-85.5,18.1C31.2,150.7-17,226.8,7.6,284.7l21.3,50.2c12.1,28.5,36.5,53.9,65.3,67.9c19.1,9.3,40.1,14,62.5,14
				c24.8,0,51.3-5.8,78.7-17.4c52-22,86.7-56.5,100.6-99.1c9.9-30.5,8.7-65.7-3.4-94.2l-21.3-50.2
				C295.2,118.1,251.9,97.2,200.4,97.2L200.4,97.2z M112.1,325.4c-42.2,0-77.5-15.3-90.7-46.5c-21.5-50.8,25.6-119.5,99-150.6
				c26.8-11.4,55.3-16.9,81.7-16.9c45.8,0,85.4,16.7,99.1,49c21.5,50.8-31.6,116-104.9,147C168,319.3,138.7,325.4,112.1,325.4
				L112.1,325.4z"/>
		</g>
	</g>
    <g class="st2">
		<path class="st8" d="M137,363.5c-2.4,0-4.5-1.5-5.5-3.8c-1.3-3.1,0-6.5,2.9-7.8c0.7-0.3,1.4-0.4,2.1-0.4c2.4,0,4.5,1.5,5.5,3.8
			c0.6,1.5,0.7,3.2,0.1,4.7c-0.6,1.4-1.6,2.5-3,3.1C138.4,363.3,137.7,363.5,137,363.5z"/>
      <path class="st6" d="M136.5,344.6c-1.6,0-3.2,0.3-4.8,1c-6.4,2.7-9.3,10.2-6.5,16.8c2.1,5,6.9,8,11.8,8c1.6,0,3.2-0.3,4.8-1
			c6.4-2.7,9.3-10.2,6.5-16.8C146.2,347.6,141.5,344.6,136.5,344.6L136.5,344.6z"/>
	</g>
    <g class="st2">
		<path class="st8" d="M274.7,305.1c-2.4,0-4.5-1.5-5.5-3.8c-1.3-3.1,0-6.5,2.9-7.8c0.7-0.3,1.4-0.4,2.1-0.4c2.4,0,4.5,1.5,5.5,3.8
			c0.6,1.5,0.7,3.2,0.1,4.7c-0.6,1.4-1.6,2.5-3,3.1C276.1,305,275.4,305.1,274.7,305.1z"/>
      <path class="st6" d="M274.2,286.3c-1.6,0-3.2,0.3-4.8,1c-6.4,2.7-9.3,10.2-6.5,16.8c2.1,5,6.9,8,11.8,8c1.6,0,3.2-0.3,4.8-1
			c6.4-2.7,9.3-10.2,6.5-16.8C283.9,289.3,279.1,286.3,274.2,286.3L274.2,286.3z"/>
	</g>
    <path class="st1" d="M183.5,370.8c14.7-3.2,21.9-5.2,35.3-10.9c13.3-5.6,20.5-9.6,32.3-17.6"/>
    <g class="st2">
		
			<rect x="362.7" y="23.5" transform="matrix(0.4386 -0.8987 0.8987 0.4386 148.1577 418.2125)" class="st7"
            width="92.2" height="134.1"/>
	</g>
    <g class="st2">
		<g>
			<path class="st6" d="M368.7,2.9c-6.2,0-12.1,3.5-15,9.4l-40.4,82.9c-4.1,8.4-0.6,18.3,7.7,22.4l30.1,14.7l-7.4,15.1
				c-4.1,8.4-0.6,18.3,7.7,22.4l30.1,14.7c2.4,1.2,4.9,1.7,7.4,1.7c6.2,0,12.1-3.5,15-9.4l7.4-15.1l30.1,14.7
				c2.4,1.2,4.9,1.7,7.3,1.7c6.2,0,12.1-3.5,15-9.5l40.5-82.8c4.1-8.4,0.6-18.3-7.7-22.4L376.1,4.6C373.7,3.5,371.2,2.9,368.7,2.9
				L368.7,2.9z M448.9,161.4l-120.5-58.8l40.4-82.9l120.5,58.8L448.9,161.4L448.9,161.4z M389,169.4l-30.1-14.7l7.4-15.1l30.1,14.7
				L389,169.4L389,169.4z"/>
		</g>
	</g>
</g>
  <g id="Layer_2" class="st0">
	<line class="st9" x1="281.1" y1="330.6" x2="335" y2="352.8"/>
    <line class="st9" x1="156" y1="385.9" x2="136.2" y2="440.6"/>
    <line class="st9" x1="69.8" y1="374.6" x2="15.9" y2="352.3"/>
    <line class="st9" x1="329.5" y1="259.8" x2="349.3" y2="205"/>
    <g class="st2">
		
			<ellipse transform="matrix(0.9146 -0.4044 0.4044 0.9146 -73.9195 81.9811)" class="st10" cx="157.1" cy="216"
               rx="157" ry="103.5"/>
	</g>

    <ellipse transform="matrix(0.9146 -0.4044 0.4044 0.9146 -74.0076 81.0554)" class="st4" cx="154.9" cy="215.7"
             rx="56.5" ry="38.6"/>
    <g class="st2">
		<path class="st5" d="M102.4,239.1c9,20.4,39.9,26.6,68.9,13.8s45.2-39.8,36.1-60.2c-9-20.4-39.9-26.6-68.9-13.8
			C109.6,191.6,93.4,218.6,102.4,239.1z M165.5,239.9c-18.8,8.3-38.9,4.3-44.7-9c-5.9-13.3,4.7-30.8,23.5-39.1
			c18.8-8.3,38.9-4.3,44.7,9S184.3,231.6,165.5,239.9z"/>
      <path class="st6" d="M217,188.4c1.6,3.6,7,4.7,12.1,2.4l15.5-6.9c5.1-2.2,7.9-7,6.3-10.6c-1.6-3.6-7-4.7-12.1-2.4l-15.5,6.9
			C218.2,180.1,215.4,184.8,217,188.4z"/>
      <path class="st6" d="M60.3,258.8c1.6,3.6,7,4.7,12.1,2.4l15.5-6.9c5.1-2.2,7.9-7,6.3-10.6c-1.6-3.6-7-4.7-12.1-2.4l-15.5,6.9
			C61.6,250.5,58.8,255.2,60.3,258.8z"/>
      <path class="st6" d="M125,148.2c-5.1,2.2-7.9,7-6.3,10.6l4.8,10.9c1.6,3.6,7,4.7,12.1,2.4c5.1-2.2,7.9-7,6.3-10.6l-4.8-10.9
			C135.4,147,130,145.9,125,148.2z"/>
      <path class="st6" d="M174.2,259.6c-5.1,2.2-7.9,7-6.3,10.6l7.1,16.1c1.6,3.6,7,4.7,12.1,2.4c5.1-2.2,7.9-7,6.3-10.6l-7.1-16.1
			C184.7,258.5,179.3,257.4,174.2,259.6z"/>
      <path class="st6" d="M93.2,195.1l-14.4-2.9c-4.7-0.9-10.5,1.6-13,5.8c-1.2,2.1-1.4,4.1-0.7,5.8c0.7,1.7,2.4,2.9,4.7,3.4l14.4,2.9
			c4.7,0.9,10.5-1.6,13-5.8C99.8,200.2,97.9,196.1,93.2,195.1z"/>
      <path class="st6" d="M211.8,233.2c0.7,1.7,2.4,2.9,4.7,3.4l14.4,2.9c4.7,0.9,10.5-1.6,13-5.8c2.5-4.1,0.7-8.2-4.1-9.2l-14.4-2.9
			c-4.7-0.9-10.5,1.6-13,5.8C211.2,229.5,211.1,231.5,211.8,233.2z"/>
      <path class="st6" d="M181,156.3c-1.2,2.1-1.4,4.1-0.7,5.8c0.7,1.7,2.4,2.9,4.7,3.4c4.7,0.9,10.5-1.6,13-5.8l7.5-12.6
			c2.5-4.1,0.7-8.2-4.1-9.2c-4.7-0.9-10.5,1.6-13,5.8L181,156.3z"/>
      <path class="st6" d="M128.7,275.4c2.5-4.1,0.7-8.2-4.1-9.2c-4.7-0.9-10.5,1.6-13,5.8l-7.5,12.6c-1.2,2.1-1.4,4.1-0.7,5.8
			c0.7,1.7,2.4,2.9,4.7,3.4c4.7,0.9,10.5-1.6,13-5.8L128.7,275.4z"/>
      <g>
			<path class="st7" d="M157.8,413.8c-20.9,0-40.6-4.4-58.5-13c-27.7-13.3-51.5-37.6-63.6-64.9l-22.1-50
				C-10.7,230.6,34,157.1,113.4,122c27.3-12,56.2-18.4,83.7-18.4c50.3,0,89.4,20.6,104.6,55l22.1,50c12.1,27.3,14,61.3,5.2,90.7
				c-12.4,41.5-45.1,75-94.4,96.8C208.1,407.8,182.3,413.8,157.8,413.8C157.8,413.8,157.8,413.8,157.8,413.8z M199.1,108.2
				c-28.1,0-57.1,6.2-83.8,18C39.8,159.6-4.6,231.7,18.4,283.8c13.6,30.9,47.7,48.5,93.4,48.5c27.9,0,57.6-6.6,86-19.2
				c36-15.9,67.8-40.8,87.4-68.4c21.1-29.8,26.6-60.2,15.4-85.7C286.5,127.2,248.6,108.2,199.1,108.2z"/>
        <path class="st6" d="M311,191.4l8.4,19.1c11.6,26.3,13.5,59,5,87.4c-12,40.2-43.8,72.6-91.8,93.8c-25.8,11.4-51,17.2-74.8,17.2
				c-20.2,0-39.2-4.2-56.4-12.5c-26.7-12.8-49.6-36.2-61.3-62.5l-11.9-26.8c18.3,19.3,47.5,30,83.5,30c28.6,0,59-6.8,88-19.6
				c36.7-16.2,69.3-41.8,89.3-70C302.5,228.7,309.8,209.6,311,191.4 M197.1,98.8c-27.3,0-56.8,6.1-85.6,18.8
				C29.6,153.8-16.2,230.1,9.3,287.8l22.1,50c12.5,28.4,37.2,53.5,65.9,67.3c18.6,8.9,39,13.4,60.6,13.4c24.9,0,51.4-6,78.6-18
				c50.8-22.5,84.3-57.2,97.1-99.9c9.1-30.5,7.1-65.7-5.4-94l-22.1-50C289.6,119.3,247.1,98.8,197.1,98.8L197.1,98.8z M111.8,327.6
				c-41,0-75.5-15-89-45.7c-22.3-50.5,22.7-119.6,94.4-151.3c26.7-11.8,55.4-17.6,81.9-17.6c44.5,0,83.2,16.4,97.2,48
				c22.3,50.5-28.6,116.1-100.3,147.8C167.8,321.2,138.4,327.6,111.8,327.6L111.8,327.6z"/>
		</g>
	</g>
    <g class="st2">
		<path class="st8" d="M137.8,364.2c-2.2,0-4.2-1.3-5.1-3.2c-1.2-2.8,0.1-6.1,3-7.4c0.8-0.3,1.6-0.5,2.4-0.5c2.2,0,4.2,1.3,5.1,3.2
			c1.2,2.8-0.1,6.1-3,7.4C139.5,364.1,138.7,364.2,137.8,364.2z"/>
      <path class="st6" d="M138.2,346.5c-1.7,0-3.4,0.3-5.1,1.1c-6.3,2.8-9.1,10-6.4,16.1c2,4.5,6.5,7.2,11.2,7.2c1.7,0,3.4-0.3,5.1-1.1
			c6.3-2.8,9.1-10,6.4-16.1C147.3,349.1,142.9,346.5,138.2,346.5L138.2,346.5z"/>
	</g>
    <g class="st2">
		<path class="st8" d="M272.4,304.8c-2.2,0-4.2-1.3-5.1-3.2c-1.2-2.8,0.1-6.1,3-7.4c0.8-0.3,1.6-0.5,2.4-0.5c2.2,0,4.2,1.3,5.1,3.2
			c1.2,2.8-0.1,6.1-3,7.4C274,304.6,273.2,304.8,272.4,304.8z"/>
      <path class="st6" d="M272.7,287c-1.7,0-3.4,0.3-5.1,1.1c-6.3,2.8-9.1,10-6.4,16.1c2,4.5,6.5,7.2,11.2,7.2c1.7,0,3.4-0.3,5.1-1.1
			c6.3-2.8,9.1-10,6.4-16.1C281.8,289.7,277.4,287,272.7,287L272.7,287z"/>
	</g>
    <path class="st9" d="M184.7,372.3c14.4-3.4,21.5-5.4,34.6-11.2c13-5.7,20-9.7,31.5-17.9"/>
    <g class="st2">
		
			<rect x="349.4" y="20" transform="matrix(0.3648 -0.9311 0.9311 0.3648 170.0985 423.7563)" class="st7" width="92.4"
            height="134.4"/>
	</g>
    <g class="st2">
		<g>
			<path class="st6" d="M349.9,2.9c-6.7,0-13,4-15.6,10.7l-33.7,86c-3.4,8.7,0.8,18.4,9.5,21.8l31.3,12.3l-6.1,15.6
				c-3.4,8.7,0.8,18.4,9.5,21.8l31.3,12.3c2,0.8,4.1,1.2,6.2,1.2c6.7,0,13-4,15.6-10.7l6.1-15.6l31.3,12.3c2,0.8,4.1,1.2,6.1,1.2
				c6.7,0,12.9-4.1,15.5-10.7l33.8-86c3.4-8.7-0.8-18.4-9.5-21.8L356,4.1C354,3.3,351.9,2.9,349.9,2.9L349.9,2.9z M441.3,154.7
				l-125.1-49l33.7-86l125.1,49L441.3,154.7L441.3,154.7z M382.2,167.6l-31.3-12.3l6.1-15.6l31.3,12.3L382.2,167.6L382.2,167.6z"/>
		</g>
	</g>
</g>
  <g id="Layer_3">
	<line class="st11" x1="309.6" y1="341.1" x2="334.2" y2="351.9"/>
    <line class="st11" x1="144.2" y1="415.1" x2="136.1" y2="439.8"/>
    <line class="st11" x1="53.5" y1="367.5" x2="16" y2="351.9"/>
    <line class="st11" x1="334.6" y1="243.8" x2="349.1" y2="202.3"/>
    <g class="st12">
		
			<ellipse transform="matrix(0.9141 -0.4055 0.4055 0.9141 -73.9966 82.0591)" class="st13" cx="156.7" cy="215.7"
               rx="156.6" ry="103.3"/>
	</g>

    <ellipse transform="matrix(0.9141 -0.4055 0.4055 0.9141 -74.0863 81.1332)" class="st14" cx="154.5" cy="215.4"
             rx="56.3" ry="38.5"/>
    <g>
		<path class="st5" d="M102.1,238.8c9,20.4,39.8,26.5,68.7,13.7s45-39.8,36-60.1c-9-20.4-39.8-26.5-68.7-13.7
			S93.1,218.4,102.1,238.8z M165.1,239.5c-18.7,8.3-38.8,4.3-44.6-8.9c-5.9-13.2,4.6-30.7,23.4-39s38.8-4.3,44.6,8.9
			C194.3,213.7,183.8,231.2,165.1,239.5z"/>
      <path class="st6" d="M216.3,188.1c1.6,3.6,7,4.6,12,2.4l15.5-6.9c5.1-2.2,7.9-7,6.3-10.5s-7-4.6-12-2.4l-15.5,6.9
			C217.6,179.8,214.8,184.5,216.3,188.1z"/>
      <path class="st6" d="M60.2,258.5c1.6,3.6,7,4.6,12,2.4l15.5-6.9c5.1-2.2,7.9-7,6.3-10.5s-7-4.6-12-2.4l-15.5,6.9
			C61.4,250.2,58.6,254.9,60.2,258.5z"/>
      <path class="st6" d="M124.5,148.1c-5.1,2.2-7.9,7-6.3,10.5l4.8,10.9c1.6,3.6,7,4.6,12,2.4c5.1-2.2,7.9-7,6.3-10.5l-4.8-10.9
			C135,146.9,129.6,145.8,124.5,148.1z"/>
      <path class="st6" d="M173.8,259.2c-5.1,2.2-7.9,7-6.3,10.5l7.1,16c1.6,3.6,7,4.6,12,2.4c5.1-2.2,7.9-7,6.3-10.5l-7.1-16
			C184.3,258,178.9,257,173.8,259.2z"/>
      <path class="st6" d="M92.9,194.9l-14.3-2.9c-4.7-0.9-10.5,1.6-13,5.8c-1.2,2.1-1.4,4.1-0.7,5.8c0.7,1.7,2.4,2.9,4.7,3.4l14.3,2.9
			c4.7,0.9,10.5-1.6,13-5.8C99.4,200,97.6,195.9,92.9,194.9z"/>
      <path class="st6" d="M211.2,232.8c0.7,1.7,2.4,2.9,4.7,3.4l14.3,2.9c4.7,0.9,10.5-1.6,13-5.8c2.5-4.1,0.6-8.2-4.1-9.2l-14.3-2.9
			c-4.7-0.9-10.5,1.6-13,5.8C210.7,229.1,210.5,231.1,211.2,232.8z"/>
      <path class="st6" d="M180.5,156.1c-1.2,2.1-1.4,4.1-0.7,5.8c0.7,1.7,2.4,2.9,4.7,3.4c4.7,0.9,10.5-1.6,13-5.8L205,147
			c2.5-4.1,0.6-8.2-4.1-9.2c-4.7-0.9-10.5,1.6-13,5.8L180.5,156.1z"/>
      <path class="st6" d="M128.4,275c2.5-4.1,0.6-8.2-4.1-9.2c-4.7-0.9-10.5,1.6-13,5.8l-7.5,12.6c-1.2,2.1-1.4,4.1-0.7,5.8
			c0.7,1.7,2.4,2.9,4.7,3.4c4.7,0.9,10.5-1.6,13-5.8L128.4,275z"/>
      <g>
			<g class="st15">
				<path d="M157.5,413c-20.8,0-40.3-4.3-58.2-12.9c-27.7-13.2-51.4-37.4-63.5-64.7l-22.1-49.8C-10.7,230.5,33.8,157.1,113,122
					c27.2-12.1,56.2-18.5,83.7-18.5c50.1,0,89,20.5,104.2,54.8l22.1,49.8c12.1,27.3,14.1,61.1,5.3,90.5
					c-12.4,41.5-44.9,74.9-94.1,96.7C207.7,407,181.9,413,157.5,413C157.5,413,157.5,413,157.5,413z M198.6,108.1
					c-28.1,0-57.1,6.3-83.8,18.1C39.6,159.6-4.6,231.6,18.4,283.5c13.6,30.7,47.5,48.3,93,48.3c27.9,0,57.6-6.7,86-19.2
					c35.9-15.9,67.6-40.8,87.1-68.4c21.1-29.8,26.5-60.1,15.2-85.5C285.7,127,247.9,108.1,198.6,108.1z"/>
			</g>
        <path class="st6" d="M310.1,191l8.4,19c11.6,26.3,13.5,58.8,5.1,87.2c-11.9,40.1-43.6,72.5-91.5,93.7
				c-25.8,11.5-51,17.3-74.7,17.3c-20.1,0-38.9-4.2-56.1-12.4c-26.7-12.8-49.5-36.1-61.2-62.3l-11.9-26.7
				c18.3,19.2,47.3,29.9,83.2,29.9c28.5,0,59-6.8,87.9-19.6c36.6-16.2,69.1-41.7,89-70C301.7,228.2,309,209.1,310.1,191 M196.6,98.7
				c-27.3,0-56.8,6.1-85.6,18.9C29.5,153.8-16.2,230,9.3,287.5l22.1,49.8c12.5,28.3,37.1,53.3,65.8,67.1
				c18.5,8.9,38.8,13.3,60.2,13.3c24.9,0,51.4-6,78.6-18.1c50.7-22.5,84.1-57.2,96.7-99.7c9.1-30.5,7-65.5-5.5-93.8l-22.1-49.8
				C288.7,119.1,246.5,98.7,196.6,98.7L196.6,98.7z M111.5,327c-40.8,0-75.1-14.9-88.6-45.5c-22.3-50.4,22.5-119.3,93.9-151
				c26.7-11.9,55.4-17.7,81.9-17.7c44.3,0,82.8,16.3,96.8,47.8c22.3,50.4-28.4,115.8-99.9,147.5C167.4,320.7,138,327,111.5,327
				L111.5,327z"/>
		</g>
	</g>
    <g>
		<path class="st8" d="M137.6,363.6c-2.2,0-4.2-1.3-5.1-3.2c-1.2-2.8,0.1-6.1,3-7.4c0.8-0.3,1.6-0.5,2.4-0.5c2.2,0,4.2,1.3,5.1,3.2
			c1.2,2.8-0.1,6.1-3,7.4C139.3,363.4,138.5,363.6,137.6,363.6z"/>
      <path class="st6" d="M137.9,345.9c-1.7,0-3.4,0.3-5.1,1.1c-6.2,2.8-9.1,10-6.4,16.1c2,4.5,6.4,7.2,11.1,7.2c1.7,0,3.4-0.3,5.1-1.1
			c6.2-2.8,9.1-10,6.4-16.1C147.1,348.5,142.6,345.9,137.9,345.9L137.9,345.9z"/>
	</g>
    <g>
		<path class="st8" d="M271.7,304.1c-2.2,0-4.2-1.3-5.1-3.2c-1.2-2.8,0.1-6.1,3-7.4c0.8-0.3,1.6-0.5,2.4-0.5c2.2,0,4.2,1.3,5.1,3.2
			c1.2,2.8-0.1,6.1-3,7.4C273.4,303.9,272.6,304.1,271.7,304.1z"/>
      <path class="st6" d="M272.1,286.4c-1.7,0-3.4,0.3-5.1,1.1c-6.2,2.8-9.1,10-6.4,16.1c2,4.5,6.4,7.2,11.1,7.2c1.7,0,3.4-0.3,5.1-1.1
			c6.2-2.8,9.1-10,6.4-16.1C281.2,289,276.7,286.4,272.1,286.4L272.1,286.4z"/>
	</g>
    <path class="st11" d="M184.4,371.5c14.4-3.4,21.5-5.4,34.5-11.2c13-5.7,19.9-9.7,31.4-17.9"/>
    <g>
		
			<rect x="348.4" y="19.9" transform="matrix(0.3637 -0.9315 0.9315 0.3637 170 422.7594)" class="st15" width="92.1"
            height="134"/>
	</g>
    <g>
		<g>
			<path class="st6" d="M348.7,2.9c-6.7,0-13,4-15.6,10.7l-33.5,85.8c-3.4,8.7,0.9,18.3,9.5,21.7l31.2,12.2l-6.1,15.6
				c-3.4,8.7,0.9,18.3,9.5,21.7l31.2,12.2c2,0.8,4.1,1.2,6.1,1.2c6.7,0,13-4,15.6-10.7l6.1-15.6l31.2,12.2c2,0.8,4.1,1.2,6.1,1.2
				c6.7,0,12.9-4.1,15.5-10.7l33.6-85.8c3.4-8.7-0.9-18.3-9.5-21.7L354.9,4.1C352.8,3.3,350.8,2.9,348.7,2.9L348.7,2.9z
				 M440.1,154.2l-124.8-48.7l33.5-85.8l124.8,48.7L440.1,154.2L440.1,154.2z M381.1,167.2L349.9,155l6.1-15.6l31.2,12.2
				L381.1,167.2L381.1,167.2z"/>
		</g>
	</g>
    <g>
	</g>
    <g>
	</g>
    <g>
	</g>
    <g>
	</g>
    <g>
	</g>
</g>
</svg>
