<?xml version="1.0" encoding="utf-8"?>
<!-- Generator: Adobe Illustrator 22.1.0, SVG Export Plug-In . SVG Version: 6.00 Build 0)  -->
<svg version="1.1" id="Layer_1" xmlns="http://www.w3.org/2000/svg" x="0px"
     y="0px"
     viewBox="0 0 1085.1 335" style="enable-background:new 0 0 1085.1 335;" xml:space="preserve">
<style type="text/css">
	.st0{fill:#FFFFFF;}
	.st1{fill:none;stroke:#FFFFFF;stroke-width:12;stroke-linecap:round;stroke-linejoin:round;stroke-miterlimit:10;}
</style>
  <g>
	<path class="st0" d="M281.8,37h51.8v147h2.5l24.1-28.4l37.8-40.3h59.5l-70,71.4L464.8,296h-61.6l-52.5-79.8l-17.2,17.1V296h-51.8
		V37z"/>
    <path class="st0" d="M473.4,115.4h43l13,146.3h3.5l21.3-146.3h45.5l21,146.3h3.5l13.3-146.3h41L657.2,296h-61.6l-17.8-124.6h-3.5
		L556.4,296h-61.6L473.4,115.4z"/>
    <path class="st0" d="M787.7,300.2c-30.3,0-53.3-8.4-69-25.2c-15.6-16.8-23.5-39.7-23.5-68.6c0-14.7,2-27.9,6.1-39.7
		c4.1-11.8,9.9-21.8,17.5-30.1c7.6-8.3,16.8-14.6,27.7-18.9c10.8-4.3,23-6.5,36.6-6.5c13.5,0,25.7,2.2,36.4,6.5
		c10.7,4.3,19.8,10.4,27.3,18.4c7.5,7.9,13.2,17.6,17.3,28.9c4.1,11.3,6.1,24,6.1,38v15.4H746.8v3.2c0,11.7,3.6,21.1,10.8,28.2
		c7.2,7.1,17.9,10.7,31.9,10.7c10.7,0,19.9-2,27.6-6.1c7.7-4.1,14.4-9.5,20-16.3l28,30.4c-7,8.6-16.8,16.1-29.4,22.4
		C823.1,297,807.1,300.2,787.7,300.2z M783.5,148.3c-11.2,0-20.1,3.4-26.8,10.3c-6.6,6.9-10,16.2-10,27.8v2.8h72.8v-2.8
		c0-11.9-3.2-21.2-9.6-28C803.5,151.7,794.7,148.3,783.5,148.3z"/>
    <path class="st0" d="M987.9,300.2c-30.3,0-53.3-8.4-69-25.2c-15.6-16.8-23.5-39.7-23.5-68.6c0-14.7,2-27.9,6.1-39.7
		c4.1-11.8,9.9-21.8,17.5-30.1c7.6-8.3,16.8-14.6,27.7-18.9c10.8-4.3,23-6.5,36.6-6.5c13.5,0,25.7,2.2,36.4,6.5
		c10.7,4.3,19.8,10.4,27.3,18.4c7.5,7.9,13.2,17.6,17.3,28.9c4.1,11.3,6.1,24,6.1,38v15.4H947v3.2c0,11.7,3.6,21.1,10.8,28.2
		c7.2,7.1,17.9,10.7,31.9,10.7c10.7,0,19.9-2,27.6-6.1c7.7-4.1,14.4-9.5,20-16.3l28,30.4c-7,8.6-16.8,16.1-29.4,22.4
		C1023.3,297,1007.3,300.2,987.9,300.2z M983.7,148.3c-11.2,0-20.1,3.4-26.8,10.3c-6.6,6.9-10,16.2-10,27.8v2.8h72.8v-2.8
		c0-11.9-3.2-21.2-9.6-28C1003.7,151.7,994.9,148.3,983.7,148.3z"/>
</g>
  <g id="icon">
	<g>
		<path class="st0" d="M36.9,286.9c11.1-0.6,19.9-2.5,26.4-5.8c6.5-3.3,11.8-8.4,15.8-15.1c-15.4,0-28-4-37.9-12
			c-9.9-8-14.8-20.3-14.8-36.7c0-7.1,1.3-13.6,4-19.7c2.7-6.1,6.4-11.4,11-16c4.6-4.6,10.2-8.1,16.8-10.7c6.6-2.6,13.5-3.8,20.9-3.8
			c7.9,0,15.1,1.6,21.6,4.7c6.5,3.1,12.1,7.2,16.8,12.3c4.7,5.1,8.4,11.1,11.1,17.8c2.7,6.8,4,13.8,4,21.2c0,10.2-1.4,20.8-4.3,31.5
			c-2.8,10.8-7.8,20.9-14.8,30.2s-16.8,17.4-29.4,24.2c-12.5,6.8-28.3,11.3-47.2,13.7V286.9z"/>
	</g>
    <g>
		<path class="st0" d="M78.5,25.4c31.3,0,56.8,25.5,56.8,56.8S109.8,139,78.5,139s-56.8-25.5-56.8-56.8S47.1,25.4,78.5,25.4
			 M78.5,15.4c-36.9,0-66.8,29.9-66.8,66.8S41.6,149,78.5,149s66.8-29.9,66.8-66.8S115.4,15.4,78.5,15.4L78.5,15.4z"/>
	</g>
    <line class="st1" x1="77.8" y1="112.6" x2="77.8" y2="112.6"/>
    <line class="st1" x1="78.8" y1="51.6" x2="78.8" y2="51.6"/>
    <line class="st1" x1="100.8" y1="102.6" x2="100.8" y2="102.6"/>
    <line class="st1" x1="100.8" y1="61.6" x2="100.8" y2="61.6"/>
    <line class="st1" x1="56.8" y1="60.6" x2="56.8" y2="60.6"/>
    <line class="st1" x1="56.8" y1="103.6" x2="56.8" y2="103.6"/>
    <line class="st1" x1="109.8" y1="82.6" x2="109.8" y2="82.6"/>
    <line class="st1" x1="47.8" y1="82.6" x2="47.8" y2="82.6"/>
</g>
</svg>
