<?xml version="1.0" encoding="utf-8"?>
<!-- Generator: Adobe Illustrator 22.1.0, SVG Export Plug-In . SVG Version: 6.00 Build 0)  -->
<svg version="1.1" id="Layer_1" xmlns="http://www.w3.org/2000/svg" xmlns:xlink="http://www.w3.org/1999/xlink" x="0px" y="0px"
	 viewBox="0 0 1085.1 335" style="enable-background:new 0 0 1085.1 335;" xml:space="preserve">
<style type="text/css">
	.st0{fill:#444B54;}
	.st1{fill:#6FE8D3;}
	.st2{fill:none;stroke:#FFFFFF;stroke-width:12;stroke-linecap:round;stroke-linejoin:round;stroke-miterlimit:10;}
	.st3{fill:#FFFFFF;}
	.st4{fill:none;stroke:#444B54;stroke-width:12;stroke-linecap:round;stroke-linejoin:round;stroke-miterlimit:10;}
</style>
<g>
	<path class="st0" d="M25.5,87.9c0-7.1,1.4-13.8,4.3-20.3C32.6,61,36.3,55.4,41,50.7c4.6-4.7,10.2-8.5,16.6-11.3
		c6.4-2.8,13.3-4.3,20.6-4.3c7.1,0,13.8,1.4,20.3,4.3c6.5,2.8,12.1,6.6,16.8,11.3c4.7,4.7,8.5,10.3,11.3,16.8
		c2.8,6.5,4.3,13.3,4.3,20.3c0,7.3-1.4,14.2-4.3,20.6c-2.8,6.4-6.6,12-11.3,16.6c-4.7,4.6-10.3,8.4-16.8,11.2
		c-6.5,2.8-13.3,4.3-20.3,4.3c-7.3,0-14.2-1.4-20.6-4.3c-6.4-2.8-12-6.6-16.6-11.2c-4.6-4.6-8.4-10.2-11.2-16.6
		C26.9,102.1,25.5,95.2,25.5,87.9z M36.1,287.3c11.1-0.6,19.9-2.5,26.4-5.8c6.5-3.3,11.8-8.4,15.8-15.1c-15.4,0-28-4-37.9-12
		c-9.9-8-14.8-20.3-14.8-36.7c0-7.1,1.3-13.6,4-19.7c2.7-6.1,6.4-11.4,11-16c4.6-4.6,10.2-8.1,16.8-10.7c6.6-2.6,13.5-3.8,20.9-3.8
		c7.9,0,15.1,1.6,21.6,4.7c6.5,3.1,12.1,7.2,16.8,12.3c4.7,5.1,8.4,11.1,11.1,17.8c2.7,6.8,4,13.8,4,21.2c0,10.2-1.4,20.8-4.3,31.5
		c-2.8,10.8-7.8,20.9-14.8,30.2c-7.1,9.3-16.8,17.4-29.4,24.2c-12.5,6.8-28.3,11.3-47.2,13.7V287.3z"/>
</g>
<g>
	
		<ellipse transform="matrix(0.1602 -0.9871 0.9871 0.1602 -16.2385 146.0428)" class="st1" cx="77.7" cy="82.6" rx="61.8" ry="61.8"/>
	<path class="st0" d="M77.7,25.8c31.3,0,56.8,25.5,56.8,56.8s-25.5,56.8-56.8,56.8s-56.8-25.5-56.8-56.8S46.4,25.8,77.7,25.8
		 M77.7,15.8c-36.9,0-66.8,29.9-66.8,66.8s29.9,66.8,66.8,66.8s66.8-29.9,66.8-66.8S114.6,15.8,77.7,15.8L77.7,15.8z"/>
</g>
<path class="st2" d="M70.1,33c-12,0-25,8-32,19"/>
<path class="st2" d="M74.1,179c-9,0.9-23,8-29,17"/>
<line class="st2" x1="38.1" y1="212" x2="38.1" y2="212"/>
<line class="st2" x1="30.1" y1="67" x2="30.1" y2="67"/>
<circle class="st3" cx="77.6" cy="82.5" r="23.5"/>
<line class="st4" x1="77.1" y1="113" x2="77.1" y2="113"/>
<line class="st4" x1="78.1" y1="52" x2="78.1" y2="52"/>
<line class="st4" x1="100.1" y1="103" x2="100.1" y2="103"/>
<line class="st4" x1="100.1" y1="62" x2="100.1" y2="62"/>
<line class="st4" x1="56.1" y1="61" x2="56.1" y2="61"/>
<line class="st4" x1="56.1" y1="104" x2="56.1" y2="104"/>
<line class="st4" x1="109.1" y1="83" x2="109.1" y2="83"/>
<line class="st4" x1="47.1" y1="83" x2="47.1" y2="83"/>
<g>
	<path class="st0" d="M281.8,37h51.8v147h2.5l24.1-28.3l37.8-40.3h59.5l-70,71.4L464.9,296h-61.6l-52.5-79.8l-17.2,17.1V296h-51.8
		V37z"/>
	<path class="st0" d="M473.5,115.4h43l13,146.3h3.5l21.3-146.3h45.5l21,146.3h3.5l13.3-146.3h41L657.2,296h-61.6l-17.8-124.6h-3.5
		L556.4,296h-61.6L473.5,115.4z"/>
	<path class="st0" d="M787.8,300.2c-30.3,0-53.3-8.4-69-25.2c-15.6-16.8-23.5-39.7-23.5-68.6c0-14.7,2-27.9,6.1-39.7
		c4.1-11.8,9.9-21.8,17.5-30.1c7.6-8.3,16.8-14.6,27.7-18.9c10.8-4.3,23-6.5,36.6-6.5c13.5,0,25.7,2.2,36.4,6.5
		c10.7,4.3,19.8,10.4,27.3,18.4c7.5,7.9,13.2,17.6,17.3,28.9c4.1,11.3,6.1,24,6.1,38v15.4H746.9v3.2c0,11.7,3.6,21.1,10.8,28.2
		c7.2,7.1,17.9,10.7,31.9,10.7c10.7,0,19.9-2,27.6-6.1c7.7-4.1,14.4-9.5,20-16.3l28,30.4c-7,8.6-16.8,16.1-29.4,22.4
		C823.2,297,807.2,300.2,787.8,300.2z M783.6,148.3c-11.2,0-20.1,3.4-26.8,10.3c-6.6,6.9-10,16.2-10,27.8v2.8h72.8v-2.8
		c0-11.9-3.2-21.2-9.6-28C803.6,151.7,794.8,148.3,783.6,148.3z"/>
	<path class="st0" d="M988,300.2c-30.3,0-53.3-8.4-69-25.2c-15.6-16.8-23.5-39.7-23.5-68.6c0-14.7,2-27.9,6.1-39.7
		c4.1-11.8,9.9-21.8,17.5-30.1c7.6-8.3,16.8-14.6,27.7-18.9c10.8-4.3,23-6.5,36.6-6.5c13.5,0,25.7,2.2,36.4,6.5
		c10.7,4.3,19.8,10.4,27.3,18.4c7.5,7.9,13.2,17.6,17.3,28.9c4.1,11.3,6.1,24,6.1,38v15.4H947.1v3.2c0,11.7,3.6,21.1,10.8,28.2
		c7.2,7.1,17.9,10.7,31.9,10.7c10.7,0,19.9-2,27.6-6.1c7.7-4.1,14.4-9.5,20-16.3l28,30.4c-7,8.6-16.8,16.1-29.4,22.4
		C1023.4,297,1007.4,300.2,988,300.2z M983.8,148.3c-11.2,0-20.1,3.4-26.8,10.3c-6.6,6.9-10,16.2-10,27.8v2.8h72.8v-2.8
		c0-11.9-3.2-21.2-9.6-28C1003.8,151.7,995,148.3,983.8,148.3z"/>
</g>
<g>
</g>
<g>
</g>
<g>
</g>
<g>
</g>
<g>
</g>
</svg>
