<?xml version="1.0" encoding="utf-8"?>
<!-- Generator: Adobe Illustrator 22.1.0, SVG Export Plug-In . SVG Version: 6.00 Build 0)  -->
<svg version="1.1" xmlns="http://www.w3.org/2000/svg" xmlns:xlink="http://www.w3.org/1999/xlink" x="0px" y="0px"
	 viewBox="0 0 1322 484" style="enable-background:new 0 0 1322 484;" xml:space="preserve">
<style type="text/css">
	.st0{fill:#444B54;}
	.st1{fill:#6FE8D3;}
	.st2{fill:none;stroke:#FFFFFF;stroke-width:12;stroke-linecap:round;stroke-linejoin:round;stroke-miterlimit:10;}
	.st3{fill:#FFFFFF;}
	.st4{fill:none;stroke:#444B54;stroke-width:12;stroke-linecap:round;stroke-linejoin:round;stroke-miterlimit:10;}
	.st5{fill:#70E9D4;stroke:#444B54;stroke-width:12;stroke-linecap:round;stroke-linejoin:round;stroke-miterlimit:10;}
	.st6{fill:none;}
	.st7{display:none;}
	.st8{display:inline;fill:#444B54;}
</style>
<g id="Layer_4">
	<rect y="530" class="st0" width="1322" height="421"/>
</g>
<g id="Icon">
	<g>
		<path class="st0" d="M147.4,156.9c0-7.1,1.4-13.8,4.3-20.3c2.8-6.5,6.6-12.1,11.2-16.8c4.6-4.7,10.2-8.5,16.6-11.3
			c6.4-2.8,13.3-4.3,20.6-4.3c7.1,0,13.8,1.4,20.3,4.3c6.5,2.8,12.1,6.6,16.8,11.3c4.7,4.7,8.5,10.3,11.3,16.8
			c2.8,6.5,4.3,13.3,4.3,20.3c0,7.3-1.4,14.2-4.3,20.6c-2.8,6.4-6.6,12-11.3,16.6c-4.7,4.6-10.3,8.4-16.8,11.2
			c-6.5,2.8-13.3,4.3-20.3,4.3c-7.3,0-14.2-1.4-20.6-4.3c-6.4-2.8-12-6.6-16.6-11.2c-4.6-4.6-8.4-10.2-11.2-16.6
			C148.9,171.1,147.4,164.2,147.4,156.9z M158,356.3c11.1-0.6,19.9-2.5,26.4-5.8c6.5-3.3,11.8-8.4,15.8-15.1c-15.4,0-28-4-37.9-12
			c-9.9-8-14.8-20.3-14.8-36.7c0-7.1,1.3-13.6,4-19.7c2.7-6.1,6.4-11.4,11-16c4.6-4.6,10.2-8.1,16.8-10.7c6.6-2.6,13.5-3.8,20.9-3.8
			c7.9,0,15.1,1.6,21.6,4.7c6.5,3.1,12.1,7.2,16.8,12.3c4.7,5.1,8.4,11.1,11.1,17.8c2.7,6.8,4,13.8,4,21.2c0,10.2-1.4,20.8-4.3,31.5
			c-2.8,10.8-7.8,20.9-14.8,30.2c-7.1,9.3-16.8,17.4-29.4,24.2c-12.5,6.8-28.3,11.3-47.2,13.7V356.3z"/>
	</g>
	<g>
		
			<ellipse transform="matrix(0.2298 -0.9732 0.9732 0.2298 6.256 311.0334)" class="st1" cx="199.6" cy="151.6" rx="61.8" ry="61.8"/>
		<path class="st0" d="M199.6,94.8c31.3,0,56.8,25.5,56.8,56.8s-25.5,56.8-56.8,56.8s-56.8-25.5-56.8-56.8S168.3,94.8,199.6,94.8
			 M199.6,84.8c-36.9,0-66.8,29.9-66.8,66.8s29.9,66.8,66.8,66.8s66.8-29.9,66.8-66.8S236.5,84.8,199.6,84.8L199.6,84.8z"/>
	</g>
	<g>
	</g>
	<path class="st2" d="M192,102c-12,0-25,8-32,19"/>
	<path class="st2" d="M196,248c-9,0.9-23,8-29,17"/>
	<line class="st2" x1="160" y1="281" x2="160" y2="281"/>
	<line class="st2" x1="152" y1="136" x2="152" y2="136"/>
	<circle class="st3" cx="199.5" cy="151.5" r="23.5"/>
	<line class="st4" x1="199" y1="182" x2="199" y2="182"/>
	<line class="st4" x1="200" y1="121" x2="200" y2="121"/>
	<line class="st4" x1="222" y1="172" x2="222" y2="172"/>
	<line class="st4" x1="222" y1="131" x2="222" y2="131"/>
	<line class="st4" x1="178" y1="130" x2="178" y2="130"/>
	<line class="st4" x1="178" y1="173" x2="178" y2="173"/>
	<line class="st4" x1="231" y1="152" x2="231" y2="152"/>
	<line class="st4" x1="169" y1="152" x2="169" y2="152"/>
	<g>
		<path class="st3" d="M139.4,663.9c0-7.1,1.4-13.8,4.3-20.3c2.8-6.5,6.6-12.1,11.2-16.8c4.6-4.7,10.2-8.5,16.6-11.3
			c6.4-2.8,13.3-4.3,20.6-4.3c7.1,0,13.8,1.4,20.3,4.3c6.5,2.8,12.1,6.6,16.8,11.3c4.7,4.7,8.5,10.3,11.3,16.8
			c2.8,6.5,4.3,13.3,4.3,20.3c0,7.3-1.4,14.2-4.3,20.6c-2.8,6.4-6.6,12-11.3,16.6c-4.7,4.6-10.3,8.4-16.8,11.2
			c-6.5,2.8-13.3,4.3-20.3,4.3c-7.3,0-14.2-1.4-20.6-4.3c-6.4-2.8-12-6.6-16.6-11.2c-4.6-4.6-8.4-10.2-11.2-16.6
			C140.9,678.1,139.4,671.2,139.4,663.9z M150,863.3c11.1-0.6,19.9-2.5,26.4-5.8c6.5-3.3,11.8-8.4,15.8-15.1c-15.4,0-28-4-37.9-12
			c-9.9-8-14.8-20.3-14.8-36.7c0-7.1,1.3-13.6,4-19.7c2.7-6.1,6.4-11.4,11-16c4.6-4.6,10.2-8.1,16.8-10.7c6.6-2.6,13.5-3.8,20.9-3.8
			c7.9,0,15.1,1.6,21.6,4.7c6.5,3.1,12.1,7.2,16.8,12.3c4.7,5.1,8.4,11.1,11.1,17.8c2.7,6.8,4,13.8,4,21.2c0,10.2-1.4,20.8-4.3,31.5
			c-2.8,10.8-7.8,20.9-14.8,30.2c-7.1,9.3-16.8,17.4-29.4,24.2c-12.5,6.8-28.3,11.3-47.2,13.7V863.3z"/>
	</g>
	<g>
		
			<ellipse transform="matrix(0.1602 -0.9871 0.9871 0.1602 -489.1248 742.2314)" class="st0" cx="191.6" cy="658.6" rx="61.8" ry="61.8"/>
		<path class="st3" d="M191.6,601.8c31.3,0,56.8,25.5,56.8,56.8c0,31.3-25.5,56.8-56.8,56.8s-56.8-25.5-56.8-56.8
			C134.8,627.2,160.3,601.8,191.6,601.8 M191.6,591.8c-36.9,0-66.8,29.9-66.8,66.8c0,36.9,29.9,66.8,66.8,66.8s66.8-29.9,66.8-66.8
			C258.4,621.7,228.5,591.8,191.6,591.8L191.6,591.8z"/>
	</g>
	<g>
	</g>
	<path class="st5" d="M184,609c-12,0-25,8-32,19"/>
	<path class="st6" d="M188,755c-9,0.9-23,8-29,17"/>
	<line class="st6" x1="152" y1="788" x2="152" y2="788"/>
	<line class="st4" x1="144" y1="643" x2="144" y2="643"/>
	<circle class="st6" cx="191.5" cy="658.5" r="23.5"/>
	<line class="st2" x1="191" y1="689" x2="191" y2="689"/>
	<line class="st2" x1="192" y1="628" x2="192" y2="628"/>
	<line class="st2" x1="214" y1="679" x2="214" y2="679"/>
	<line class="st2" x1="214" y1="638" x2="214" y2="638"/>
	<line class="st2" x1="170" y1="637" x2="170" y2="637"/>
	<line class="st2" x1="170" y1="680" x2="170" y2="680"/>
	<line class="st2" x1="223" y1="659" x2="223" y2="659"/>
	<line class="st2" x1="161" y1="659" x2="161" y2="659"/>
</g>
<g id="Text">
	<g class="st7">
		<path class="st8" d="M373.8,130h51.8v147h2.5l24.1-28.4l37.8-40.3h59.5l-70,71.4L556.8,389h-61.6l-52.5-79.8l-17.2,17.1V389h-51.8
			V130z"/>
		<path class="st8" d="M565.4,208.4h43l13,146.3h3.5l21.3-146.3h45.5l21,146.3h3.5l13.3-146.3h41L749.2,389h-61.6l-17.8-124.6h-3.5
			L648.4,389h-61.6L565.4,208.4z"/>
		<path class="st8" d="M879.7,393.2c-30.3,0-53.3-8.4-69-25.2c-15.6-16.8-23.5-39.7-23.5-68.6c0-14.7,2-27.9,6.1-39.7
			c4.1-11.8,9.9-21.8,17.5-30.1c7.6-8.3,16.8-14.6,27.7-18.9c10.8-4.3,23-6.5,36.6-6.5c13.5,0,25.7,2.2,36.4,6.5
			c10.7,4.3,19.8,10.4,27.3,18.4c7.5,7.9,13.2,17.6,17.3,28.9c4.1,11.3,6.1,24,6.1,38v15.4H838.8v3.2c0,11.7,3.6,21.1,10.8,28.2
			c7.2,7.1,17.9,10.7,31.9,10.7c10.7,0,19.9-2,27.6-6.1c7.7-4.1,14.4-9.5,20-16.3l28,30.4c-7,8.6-16.8,16.1-29.4,22.4
			C915.1,390,899.1,393.2,879.7,393.2z M875.5,241.3c-11.2,0-20.1,3.4-26.8,10.3c-6.6,6.9-10,16.2-10,27.8v2.8h72.8v-2.8
			c0-11.9-3.2-21.2-9.6-28C895.5,244.7,886.7,241.3,875.5,241.3z"/>
		<path class="st8" d="M1079.9,393.2c-30.3,0-53.3-8.4-69-25.2c-15.6-16.8-23.5-39.7-23.5-68.6c0-14.7,2-27.9,6.1-39.7
			c4.1-11.8,9.9-21.8,17.5-30.1c7.6-8.3,16.8-14.6,27.7-18.9c10.8-4.3,23-6.5,36.6-6.5c13.5,0,25.7,2.2,36.4,6.5
			c10.7,4.3,19.8,10.4,27.3,18.4c7.5,7.9,13.2,17.6,17.3,28.9c4.1,11.3,6.1,24,6.1,38v15.4H1039v3.2c0,11.7,3.6,21.1,10.8,28.2
			c7.2,7.1,17.9,10.7,31.9,10.7c10.7,0,19.9-2,27.6-6.1c7.7-4.1,14.4-9.5,20-16.3l28,30.4c-7,8.6-16.8,16.1-29.4,22.4
			C1115.3,390,1099.3,393.2,1079.9,393.2z M1075.7,241.3c-11.2,0-20.1,3.4-26.8,10.3c-6.6,6.9-10,16.2-10,27.8v2.8h72.8v-2.8
			c0-11.9-3.2-21.2-9.6-28C1095.7,244.7,1086.9,241.3,1075.7,241.3z"/>
	</g>
	<g>
		<path class="st0" d="M403.8,106h51.8v147h2.5l24.1-28.4l37.8-40.3h59.5l-70,71.4L586.8,365h-61.6l-52.5-79.8l-17.2,17.1V365h-51.8
			V106z"/>
		<path class="st0" d="M595.4,184.4h43l13,146.3h3.5l21.3-146.3h45.5l21,146.3h3.5l13.3-146.3h41L779.2,365h-61.6l-17.8-124.6h-3.5
			L678.4,365h-61.6L595.4,184.4z"/>
		<path class="st0" d="M909.7,369.2c-30.3,0-53.3-8.4-69-25.2c-15.6-16.8-23.5-39.7-23.5-68.6c0-14.7,2-27.9,6.1-39.7
			c4.1-11.8,9.9-21.8,17.5-30.1c7.6-8.3,16.8-14.6,27.7-18.9c10.8-4.3,23-6.5,36.6-6.5c13.5,0,25.7,2.2,36.4,6.5
			c10.7,4.3,19.8,10.4,27.3,18.4c7.5,7.9,13.2,17.6,17.3,28.9c4.1,11.3,6.1,24,6.1,38v15.4H868.8v3.2c0,11.7,3.6,21.1,10.8,28.2
			c7.2,7.1,17.9,10.7,31.9,10.7c10.7,0,19.9-2,27.6-6.1c7.7-4.1,14.4-9.5,20-16.3l28,30.4c-7,8.6-16.8,16.1-29.4,22.4
			C945.1,366,929.1,369.2,909.7,369.2z M905.5,217.3c-11.2,0-20.1,3.4-26.8,10.3c-6.6,6.9-10,16.2-10,27.8v2.8h72.8v-2.8
			c0-11.9-3.2-21.2-9.6-28C925.5,220.7,916.7,217.3,905.5,217.3z"/>
		<path class="st0" d="M1109.9,369.2c-30.3,0-53.3-8.4-69-25.2c-15.6-16.8-23.5-39.7-23.5-68.6c0-14.7,2-27.9,6.1-39.7
			c4.1-11.8,9.9-21.8,17.5-30.1c7.6-8.3,16.8-14.6,27.7-18.9c10.8-4.3,23-6.5,36.6-6.5c13.5,0,25.7,2.2,36.4,6.5
			c10.7,4.3,19.8,10.4,27.3,18.4c7.5,7.9,13.2,17.6,17.3,28.9c4.1,11.3,6.1,24,6.1,38v15.4H1069v3.2c0,11.7,3.6,21.1,10.8,28.2
			c7.2,7.1,17.9,10.7,31.9,10.7c10.7,0,19.9-2,27.6-6.1c7.7-4.1,14.4-9.5,20-16.3l28,30.4c-7,8.6-16.8,16.1-29.4,22.4
			C1145.3,366,1129.3,369.2,1109.9,369.2z M1105.7,217.3c-11.2,0-20.1,3.4-26.8,10.3c-6.6,6.9-10,16.2-10,27.8v2.8h72.8v-2.8
			c0-11.9-3.2-21.2-9.6-28C1125.7,220.7,1116.9,217.3,1105.7,217.3z"/>
	</g>
	<g>
		<path class="st3" d="M395.8,613h51.8v147h2.5l24.1-28.3l37.8-40.3h59.5l-70,71.4L578.8,872h-61.6l-52.5-79.8l-17.2,17.1V872h-51.8
			V613z"/>
		<path class="st3" d="M587.4,691.4h43l13,146.3h3.5l21.3-146.3h45.5l21,146.3h3.5l13.3-146.3h41L771.2,872h-61.6l-17.8-124.6h-3.5
			L670.4,872h-61.6L587.4,691.4z"/>
		<path class="st3" d="M901.7,876.2c-30.3,0-53.3-8.4-69-25.2c-15.6-16.8-23.5-39.7-23.5-68.6c0-14.7,2-27.9,6.1-39.7
			c4.1-11.8,9.9-21.8,17.5-30.1c7.6-8.3,16.8-14.6,27.7-18.9c10.8-4.3,23-6.5,36.6-6.5c13.5,0,25.7,2.2,36.4,6.5
			c10.7,4.3,19.8,10.4,27.3,18.4c7.5,7.9,13.2,17.6,17.3,28.9c4.1,11.3,6.1,24,6.1,38v15.4H860.8v3.2c0,11.7,3.6,21.1,10.8,28.2
			c7.2,7.1,17.9,10.7,31.9,10.7c10.7,0,19.9-2,27.6-6.1c7.7-4.1,14.4-9.5,20-16.3l28,30.4c-7,8.6-16.8,16.1-29.4,22.4
			C937.1,873,921.1,876.2,901.7,876.2z M897.5,724.3c-11.2,0-20.1,3.4-26.8,10.3c-6.6,6.9-10,16.2-10,27.8v2.8h72.8v-2.8
			c0-11.9-3.2-21.2-9.6-28C917.5,727.7,908.7,724.3,897.5,724.3z"/>
		<path class="st3" d="M1101.9,876.2c-30.3,0-53.3-8.4-69-25.2c-15.6-16.8-23.5-39.7-23.5-68.6c0-14.7,2-27.9,6.1-39.7
			c4.1-11.8,9.9-21.8,17.5-30.1c7.6-8.3,16.8-14.6,27.7-18.9c10.8-4.3,23-6.5,36.6-6.5c13.5,0,25.7,2.2,36.4,6.5
			c10.7,4.3,19.8,10.4,27.3,18.4c7.5,7.9,13.2,17.6,17.3,28.9c4.1,11.3,6.1,24,6.1,38v15.4H1061v3.2c0,11.7,3.6,21.1,10.8,28.2
			c7.2,7.1,17.9,10.7,31.9,10.7c10.7,0,19.9-2,27.6-6.1c7.7-4.1,14.4-9.5,20-16.3l28,30.4c-7,8.6-16.8,16.1-29.4,22.4
			C1137.3,873,1121.3,876.2,1101.9,876.2z M1097.7,724.3c-11.2,0-20.1,3.4-26.8,10.3c-6.6,6.9-10,16.2-10,27.8v2.8h72.8v-2.8
			c0-11.9-3.2-21.2-9.6-28C1117.7,727.7,1108.9,724.3,1097.7,724.3z"/>
	</g>
	
		<image style="display:none;overflow:visible;" width="600" height="564" xlink:href="../../../../../../Desktop/healthy-vector-food-3.png"  transform="matrix(1 0 0 1 576 -17)">
	</image>
</g>
<g id="Layer_3">
	<g>
	</g>
	<g>
	</g>
	<g>
	</g>
	<g>
	</g>
	<g>
	</g>
	<g>
	</g>
	<g>
	</g>
	<g>
	</g>
	<g>
	</g>
	<g>
	</g>
	<g>
	</g>
	<g>
	</g>
	<g>
	</g>
	<g>
	</g>
	<g>
	</g>
</g>
</svg>
