<?xml version="1.0" standalone="no"?>
<!DOCTYPE svg PUBLIC "-//W3C//DTD SVG 20010904//EN"
 "http://www.w3.org/TR/2001/REC-SVG-20010904/DTD/svg10.dtd">
<svg version="1.0" xmlns="http://www.w3.org/2000/svg"
 width="700.000000pt" height="700.000000pt" viewBox="0 0 700.000000 700.000000"
 preserveAspectRatio="xMidYMid meet">
<metadata>
Created by potrace 1.11, written by Peter Selinger 2001-2013
</metadata>
<g transform="translate(0.000000,700.000000) scale(0.100000,-0.100000)"
fill="#000000" stroke="none">
<path d="M3460 5564 c-140 -26 -261 -68 -351 -124 -279 -170 -449 -471 -449
-792 0 -90 32 -246 69 -338 106 -259 321 -452 596 -536 80 -24 106 -27 245
-28 123 -1 170 3 225 18 334 90 578 334 672 670 13 46 17 101 17 221 0 146 -3
168 -28 250 -97 319 -339 554 -654 636 -75 20 -284 34 -342 23z m41 -154 c23
0 49 -42 49 -78 0 -53 -24 -71 -117 -89 -133 -25 -219 -81 -330 -216 -43 -52
-112 -44 -141 16 -18 37 -7 68 48 131 99 114 238 201 360 225 30 6 64 13 75
15 11 2 26 2 33 0 8 -2 18 -4 23 -4z m141 -441 c208 -44 316 -276 217 -465
-76 -144 -264 -210 -409 -143 -78 36 -125 81 -159 152 -40 82 -47 139 -27 216
31 123 115 208 231 237 65 16 83 16 147 3z m-660 -49 c25 -26 29 -36 24 -62
-12 -61 -65 -89 -117 -63 -55 29 -59 103 -7 139 34 24 66 19 100 -14z"/>
<path d="M3494 3490 c-39 -4 -97 -15 -130 -25 -228 -66 -410 -248 -480 -480
-25 -82 -25 -292 0 -385 48 -176 144 -293 307 -374 101 -50 240 -86 337 -86
l53 0 -30 -44 c-86 -125 -220 -195 -431 -226 l-115 -16 -3 -234 c-1 -129 0
-240 2 -246 3 -8 33 -6 108 7 376 64 635 185 845 395 208 207 316 452 354 806
22 196 -5 360 -82 509 -145 279 -426 431 -735 399z m86 -100 c23 -23 27 -77 8
-103 -7 -9 -47 -26 -88 -38 -106 -29 -184 -73 -266 -151 -60 -57 -77 -68 -106
-68 -66 0 -91 61 -53 126 89 151 430 309 505 234z m-497 -444 c10 -8 21 -30
24 -50 7 -47 -25 -86 -71 -86 -44 1 -67 22 -73 68 -5 34 -2 42 22 60 31 25 71
28 98 8z"/>
</g>
</svg>
