<?xml version="1.0" encoding="utf-8"?>
<!-- Generator: Adobe Illustrator 22.1.0, SVG Export Plug-In . SVG Version: 6.00 Build 0)  -->
<svg version="1.1" id="Layer_1" xmlns="http://www.w3.org/2000/svg" x="0px"
     y="0px"
     viewBox="0 0 512 512" style="enable-background:new 0 0 512 512;" xml:space="preserve">
<style type="text/css">
	.st0{fill:#444B54;}
	.st1{fill:#6FE8D3;}
	.st2{fill:none;stroke:#FFFFFF;stroke-width:12;stroke-linecap:round;stroke-linejoin:round;stroke-miterlimit:10;}
	.st3{fill:#FFFFFF;}
	.st4{fill:none;stroke:#444B54;stroke-width:12;stroke-linecap:round;stroke-linejoin:round;stroke-miterlimit:10;}
</style>
    <g>
	<path class="st0" d="M209.4,176.9c0-7.1,1.4-13.8,4.3-20.3c2.8-6.5,6.6-12.1,11.2-16.8c4.6-4.7,10.2-8.5,16.6-11.3
		c6.4-2.8,13.3-4.3,20.6-4.3c7.1,0,13.8,1.4,20.3,4.3c6.5,2.8,12.1,6.6,16.8,11.3c4.7,4.7,8.5,10.3,11.3,16.8s4.3,13.3,4.3,20.3
		c0,7.3-1.4,14.2-4.3,20.6c-2.8,6.4-6.6,12-11.3,16.6c-4.7,4.6-10.3,8.4-16.8,11.2s-13.3,4.3-20.3,4.3c-7.3,0-14.2-1.4-20.6-4.3
		c-6.4-2.8-12-6.6-16.6-11.2c-4.6-4.6-8.4-10.2-11.2-16.6C210.9,191.1,209.4,184.2,209.4,176.9z M220,376.3
		c11.1-0.6,19.9-2.5,26.4-5.8s11.8-8.4,15.8-15.1c-15.4,0-28-4-37.9-12s-14.8-20.3-14.8-36.7c0-7.1,1.3-13.6,4-19.7s6.4-11.4,11-16
		s10.2-8.1,16.8-10.7s13.5-3.8,20.9-3.8c7.9,0,15.1,1.6,21.6,4.7s12.1,7.2,16.8,12.3c4.7,5.1,8.4,11.1,11.1,17.8
		c2.7,6.8,4,13.8,4,21.2c0,10.2-1.4,20.8-4.3,31.5c-2.8,10.8-7.8,20.9-14.8,30.2c-7.1,9.3-16.8,17.4-29.4,24.2
		c-12.5,6.8-28.3,11.3-47.2,13.7L220,376.3L220,376.3z"/>
</g>
    <g>
	
		<ellipse transform="matrix(0.7071 -0.7071 0.7071 0.7071 -44.7174 235.2914)" class="st1" cx="261.7" cy="171.6"
                 rx="61.8" ry="61.8"/>
        <path class="st0" d="M261.6,114.8c31.3,0,56.8,25.5,56.8,56.8s-25.5,56.8-56.8,56.8s-56.8-25.5-56.8-56.8S230.3,114.8,261.6,114.8
		 M261.6,104.8c-36.9,0-66.8,29.9-66.8,66.8s29.9,66.8,66.8,66.8s66.8-29.9,66.8-66.8S298.5,104.8,261.6,104.8L261.6,104.8z"/>
</g>
    <path class="st2" d="M254,122c-12,0-25,8-32,19"/>
    <path class="st2" d="M258,268c-9,0.9-23,8-29,17"/>
    <line class="st2" x1="222" y1="301" x2="222" y2="301"/>
    <line class="st2" x1="214" y1="156" x2="214" y2="156"/>
    <circle class="st3" cx="261.5" cy="171.5" r="23.5"/>
    <line class="st4" x1="261" y1="202" x2="261" y2="202"/>
    <line class="st4" x1="262" y1="141" x2="262" y2="141"/>
    <line class="st4" x1="284" y1="192" x2="284" y2="192"/>
    <line class="st4" x1="284" y1="151" x2="284" y2="151"/>
    <line class="st4" x1="240" y1="150" x2="240" y2="150"/>
    <line class="st4" x1="240" y1="193" x2="240" y2="193"/>
    <line class="st4" x1="293" y1="172" x2="293" y2="172"/>
    <line class="st4" x1="231" y1="172" x2="231" y2="172"/>
</svg>
