<?xml version="1.0" encoding="utf-8"?>
<!-- Svg Vector Icons : http://www.onlinewebfonts.com/icon -->
<!DOCTYPE svg PUBLIC "-//W3C//DTD SVG 1.1//EN" "http://www.w3.org/Graphics/SVG/1.1/DTD/svg11.dtd">
<svg version="1.1" xmlns="http://www.w3.org/2000/svg" xmlns:xlink="http://www.w3.org/1999/xlink" x="0px" y="0px" viewBox="0 0 1000 1000" enable-background="new 0 0 1000 1000" xml:space="preserve">
<metadata> Svg Vector Icons : http://www.onlinewebfonts.com/icon </metadata>
<g><g transform="translate(0.000000,511.000000) scale(0.100000,-0.100000)"><path d="M5215.4,2996.6c-221.3-55.3-458.4-199.6-602.6-361.6c-43.5-47.4-359.6-377.4-703.4-731.1c-468.3-478.1-628.3-656-628.3-691.5c0-92.9,59.3-245,126.5-322.1c140.3-164,466.3-280.6,723.1-254.9c456.4,41.5,980,339.8,1713,972.1l96.8,81l748.8-652C7936-48.1,7872.8,11.2,7942-129.1c114.6-237.1,120.5-468.3,21.7-733c-55.3-144.2-217.3-324-365.5-401.1l-108.7-57.3v-100.8c0-280.5-92.9-499.9-296.4-697.5c-77.1-75.1-132.4-140.3-122.5-146.2c39.5-25.7,282.5-53.3,460.4-53.3c365.5,0,754.7,104.7,922.7,248.9l83,71.1v1675.5v1675.5l-1070.9,681.7c-1193.4,758.7-1288.2,814-1556.9,904.9c-158.1,53.3-221.3,65.2-405,69.2C5385.3,3012.4,5254.9,3006.5,5215.4,2996.6z"/><path d="M3794.8,2603.4c-258.8-71.1-492-187.7-748.8-375.4c-69.2-49.4-452.5-304.3-849.6-565.1l-723.1-476.2l-5.9-1592.5l-4-1592.5l112.6-11.9c63.2-5.9,341.8-25.7,618.4-43.5c316.1-19.8,521.6-41.5,553.2-57.3c27.7-13.8,177.8-120.5,335.9-235.1c438.6-320.1,675.7-418.9,1057.1-440.6c223.3-11.8,355.6,7.9,513.7,85c104.7,49.4,108.7,49.4,221.3,17.8c154.1-43.5,557.2-61.3,701.4-31.6c63.2,13.8,164,49.4,227.2,81c120.5,61.2,306.3,229.2,353.7,322.1c25.7,49.4,37.5,53.3,142.3,53.3c345.8,0,721.2,213.4,853.6,484.1c43.5,88.9,49.4,124.5,51.4,343.8l2,245l90.9,33.6c134.3,51.4,219.3,110.6,318.1,219.3c197.6,221.3,221.3,490,61.3,733c-35.6,53.3-1470,1321.8-1713,1513.4c-29.6,23.7-59.3,7.9-247-140.3c-671.8-525.6-1240.8-784.4-1728.8-784.4c-296.4,0-521.6,86.9-707.3,274.6c-126.4,126.5-207.5,276.6-239.1,444.6c-41.5,225.2-63.2,193.6,624.4,881.2c414.9,414.9,612.5,626.3,596.7,636.2C4219.6,2652.8,3925.2,2639,3794.8,2603.4z"/><path d="M244.2,1504.9c-35.6-15.8-83-57.3-104.7-92.9C100,1348.8,100,1317.2,100-342.5c0-1636,2-1691.3,37.5-1746.6c69.2-102.7,98.8-108.7,515.7-108.7c416.9,0,446.5,5.9,515.7,108.7c35.6,55.3,37.5,110.7,37.5,1746.6c0,1659.7,0,1691.3-39.5,1754.5c-65.2,106.7-132.4,122.5-517.7,122.5C400.3,1532.6,289.7,1524.7,244.2,1504.9z"/><path d="M8918,1495c-130.4-79-124.5,17.8-124.5-1837.5c0-1845.4-5.9-1764.4,118.6-1827.6c88.9-45.4,790.3-43.5,871.3,4c120.5,71.1,116.6-2,116.6,1837.5c0,1645.8,0,1677.5-39.5,1740.7c-65.2,106.7-132.4,122.5-527.5,122.5C9018.8,1534.5,8975.3,1530.6,8918,1495z"/></g></g>
</svg>